<?xml version="1.0" encoding="utf-8"?>
<svg xmlns="http://www.w3.org/2000/svg" viewBox="0 0 48 48" width="144" height="144">
  <path d="M24 4C14.629252 4 7 11.629252 7 21C7 25.20679 8.5433056 29.064832 11.078125 32.03125L11.085938 32.039062L11.091797 32.046875C11.091797 32.046875 18.323729 40.299027 20.898438 42.755859C22.622568 44.39966 25.375478 44.39966 27.099609 42.755859C30.034388 39.956663 36.910156 32.042969 36.910156 32.042969L36.914062 32.037109L36.919922 32.03125C39.456988 29.064801 41 25.20679 41 21C41 11.629252 33.370748 4 24 4 z M 24 7C31.749252 7 38 13.250748 38 21C38 24.47521 36.733544 27.632586 34.638672 30.082031C34.625032 30.097631 27.590036 38.143501 25.029297 40.585938C24.435428 41.152136 23.562619 41.152136 22.96875 40.585938C20.828579 38.543748 13.381099 30.106639 13.359375 30.082031L13.357422 30.080078C11.265326 27.630829 10 24.474248 10 21C10 13.250748 16.250748 7 24 7 z M 24 15C22.125 15 20.528815 15.757133 19.503906 16.910156C18.478997 18.063179 18 19.541667 18 21C18 22.458333 18.478997 23.936821 19.503906 25.089844C20.528815 26.242867 22.125 27 24 27C25.875 27 27.471185 26.242867 28.496094 25.089844C29.521003 23.936821 30 22.458333 30 21C30 19.541667 29.521003 18.063179 28.496094 16.910156C27.471185 15.757133 25.875 15 24 15 z M 24 18C25.124999 18 25.778816 18.367867 26.253906 18.902344C26.728997 19.436821 27 20.208333 27 21C27 21.791667 26.728997 22.563179 26.253906 23.097656C25.778816 23.632133 25.124999 24 24 24C22.875001 24 22.221184 23.632133 21.746094 23.097656C21.271003 22.563179 21 21.791667 21 21C21 20.208333 21.271003 19.436821 21.746094 18.902344C22.221184 18.367867 22.875001 18 24 18 z" fill="#1F1F1F" />
</svg>