<svg width="49" height="64" viewBox="0 0 49 64" fill="none" xmlns="http://www.w3.org/2000/svg">
<path d="M23.9097 55.9741V63.6741L12.7197 52.4841L23.7197 41.8941L24.1297 48.8941C31.4097 50.0541 39.7297 44.2441 41.3997 36.4041C42.0697 33.2641 42.2797 29.5541 41.2297 26.6341C39.8297 22.7141 41.6997 21.2241 44.2297 19.4141C54.8397 33.7441 44.4197 52.8341 23.9097 55.9741Z" fill="#0A4B9B"/>
<path d="M24.2598 7.15359V0.683594L34.7198 10.8836L24.5498 20.7836L24.1498 13.9936C13.9298 13.1136 4.90981 22.9936 6.23981 33.2636C6.26651 34.2618 6.45915 35.2486 6.80982 36.1836C8.59982 39.5936 7.26982 41.8036 3.80982 43.7836C-0.19018 37.6936 -0.740182 31.0336 1.36982 24.4436C4.76982 13.6536 12.9198 8.32359 24.2598 7.15359Z" fill="#0A4B9B"/>
</svg>
