<svg width="40" height="65" viewBox="0 0 40 65" fill="none" xmlns="http://www.w3.org/2000/svg">
<path d="M11.7896 22.7339C6.35955 24.1839 6.35959 24.1839 6.32959 28.9739C6.32959 30.6339 6.32959 32.2839 6.32959 34.2439H0.959595C0.799138 33.883 0.684935 33.5033 0.619629 33.1139C0.829629 28.8439 1.05954 24.5839 1.27954 20.3239C6.62954 18.0739 11.8996 15.5839 17.3896 13.7539C18.7996 13.2939 21.1696 14.5839 22.6296 15.6839C24.0896 16.7839 24.9296 18.5139 25.8396 20.0939C28.7796 25.0939 32.6996 28.6439 39.1396 28.6439V34.0639C33.4396 34.5039 30.3496 33.2839 23.0696 27.6439C22.3309 30.0273 21.7792 32.4647 21.4196 34.9339C21.3396 35.9339 22.4196 37.4039 23.3296 38.0739C26.8496 40.6039 27.7096 43.9139 27.4496 48.0739C27.1396 53.0739 27.3596 58.0739 27.3396 63.0739C27.2795 63.5309 27.1825 63.9824 27.0496 64.4239L21.6396 64.6739C21.6396 60.6739 21.2496 56.8639 21.7296 53.1739C22.4596 47.5839 19.9796 44.0239 15.1696 41.0939L9.67957 64.4139H3.52954C6.29954 50.5039 8.95955 36.8939 11.7896 22.7339Z" fill="#0A4B9B"/>
<path d="M23.0697 11.7345C21.5625 11.777 20.0972 11.236 18.9793 10.2243C17.8614 9.21259 17.1773 7.80836 17.0697 6.30449C17.0617 4.71319 17.6863 3.18391 18.8059 2.05306C19.9255 0.922217 21.4483 0.282446 23.0396 0.274489C24.6309 0.266533 26.1602 0.891043 27.2911 2.01064C28.4219 3.13023 29.0617 4.65319 29.0697 6.24449C28.9818 7.76087 28.3056 9.18308 27.185 10.2084C26.0644 11.2338 24.5879 11.7813 23.0697 11.7345Z" fill="#0A4B9B"/>
</svg>
