<svg width="61" height="62" viewBox="0 0 61 62" fill="none" xmlns="http://www.w3.org/2000/svg">
<path d="M57.0948 34.1913C57.0869 37.7225 56.3836 41.2176 55.025 44.4771C53.6663 47.7365 51.679 50.6964 49.1765 53.1878C46.6739 55.6792 43.7052 57.6533 40.4398 58.9974C37.1743 60.3414 33.676 61.0292 30.1447 61.0213C26.6135 61.0134 23.1184 60.3101 19.859 58.9514C16.5995 57.5928 13.6397 55.6055 11.1483 53.103C8.65686 50.6004 6.68276 47.6317 5.33869 44.3662C3.99462 41.1007 3.30688 37.6025 3.31476 34.0713C3.33068 26.9396 6.17899 20.1063 11.2331 15.0747C16.2872 10.0431 23.1332 7.22536 30.2648 7.24128C37.3965 7.25719 44.2297 10.1055 49.2613 15.1596C54.2929 20.2137 57.1107 27.0596 57.0948 34.1913ZM29.9548 55.3013C34.1144 55.331 38.1892 54.1247 41.6623 51.8353C45.1354 49.5459 47.8504 46.2766 49.4628 42.4421C51.0753 38.6076 51.5127 34.3805 50.7194 30.2971C49.9262 26.2137 47.938 22.4578 45.0071 19.5059C42.0763 16.554 38.3348 14.539 34.2571 13.7164C30.1795 12.8939 25.9495 13.3009 22.1035 14.8859C18.2575 16.4708 14.9688 19.1623 12.6546 22.6189C10.3404 26.0755 9.10491 30.1415 9.1048 34.3013C9.1229 39.8393 11.3206 45.1476 15.2226 49.0777C19.1246 53.0077 24.417 55.2435 29.9548 55.3013Z" fill="#0A4B9B"/>
<path d="M14.0148 1.07129L17.8848 5.54129L4.12476 16.8113L0.284668 12.5013L14.0148 1.07129Z" fill="#0A4B9B"/>
<path d="M60.0447 12.3822L56.3748 16.8822L42.5247 5.11223L46.5247 0.782227L60.0447 12.3822Z" fill="#0A4B9B"/>
<path d="M27.3347 19.5117H31.7047C31.7047 23.6817 31.8446 27.7817 31.6446 31.8617C31.5043 32.9184 31.7138 33.9919 32.241 34.9183C32.7683 35.8446 33.5845 36.5729 34.5647 36.9917C37.6147 38.6117 40.5046 40.5217 43.6746 42.4417L41.1947 45.8717C37.0147 43.3117 32.8747 40.9617 28.9847 38.2617C27.9847 37.5917 27.4646 35.7917 27.4146 34.4917C27.2246 29.6817 27.3347 24.8617 27.3347 19.5117Z" fill="#0A4B9B"/>
</svg>
